<?xml version="1.0" encoding="UTF-8"?>
<svg id="Layer_2" data-name="Layer 2" xmlns="http://www.w3.org/2000/svg" viewBox="0 0 355.64 90">
  <defs>
    <style>
      .cls-1 {
        fill: #0dacff;
      }
    </style>
  </defs>
  <g id="Layer_1-2" data-name="Layer 1">
    <g>
      <g>
        <path class="cls-1" d="M150.91,42.83c-1.63-2.39-4.45-4.02-7.71-4.02-5.1,0-9.34,4.24-9.34,9.34s4.24,9.44,9.34,9.44c3.26,0,6.08-1.63,7.71-4.12h9.01c-2.17,6.62-8.47,11.4-15.85,11.4h-1.74c-9.22,0-16.71-7.49-16.71-16.71s7.49-16.71,16.71-16.71h1.74c7.38,0,13.68,4.77,15.85,11.4h-9.01Z"/>
        <path class="cls-1" d="M190.81,63.71h-9.02l-6.71-10.22h-5.11v10.22h-7.61v-30.86h18.14c5.61,0,10.32,4.71,10.32,10.32,0,4.51-3,8.42-7.01,9.82l7.01,10.72Zm-10.32-17.73c1.4,0,2.7-1.3,2.7-2.81s-1.3-2.7-2.7-2.7h-10.52v5.51h10.52Z"/>
        <path class="cls-1" d="M202.02,44.47h14.13v7.61h-14.13v4.11h17.04v7.52h-24.65v-30.86h24.65v7.61h-17.04v4.01Z"/>
        <path class="cls-1" d="M252.59,63.71h-8.12l-2.31-5.71h-11.02l-2.21,5.71h-8.22l12.03-30.86h7.82l12.02,30.86Zm-15.93-19.84l-2.51,6.51h5.01l-2.5-6.51Z"/>
        <path class="cls-1" d="M320.35,48.28c0,8.52-7.01,15.43-15.53,15.43h-1.6c-8.52,0-15.43-6.91-15.43-15.43s6.91-15.43,15.43-15.43h1.6c8.52,0,15.53,7.01,15.53,15.43Zm-16.33-8.62c-4.71,0-8.62,3.91-8.62,8.62s3.91,8.72,8.62,8.72,8.72-3.91,8.72-8.72-3.91-8.62-8.72-8.62Z"/>
        <path class="cls-1" d="M333.99,32.85l13.63,19.44v-19.44h7.61v30.26l.4,.6h-9.32l-14.23-20.24v20.24h-7.52v-30.86h9.42Z"/>
        <g>
          <path class="cls-1" d="M100.55,32.85v30.86h-7.71v-30.86h7.71Z"/>
          <path class="cls-1" d="M108.26,32.85v7.71h-15.33v-7.71h15.33Z"/>
          <path class="cls-1" d="M85.1,40.49v23.22h-7.71v-23.22h7.71Z"/>
          <path class="cls-1" d="M77.42,27.07v5.78h5.78c1.06,0,1.93,.86,1.93,1.93v5.78h5.78c1.06,0,1.93-.86,1.93-1.93v-5.78h-5.78c-1.06,0-1.93-.86-1.93-1.93v-5.78h-5.78c-1.06,0-1.93,.86-1.93,1.93Z"/>
        </g>
        <g>
          <path class="cls-1" d="M260.42,32.85v30.86h7.71v-30.86h-7.71Z"/>
          <path class="cls-1" d="M252.72,32.85v7.71h15.33v-7.71h-15.33Z"/>
          <path class="cls-1" d="M275.87,40.49v23.22h7.71v-23.22h-7.71Z"/>
          <path class="cls-1" d="M283.55,27.07v5.78h-5.78c-1.06,0-1.93,.86-1.93,1.93v5.78h-5.78c-1.06,0-1.93-.86-1.93-1.93v-5.78h5.78c1.06,0,1.93-.86,1.93-1.93v-5.78h5.78c1.06,0,1.93,.86,1.93,1.93Z"/>
        </g>
      </g>
      <g>
        <path class="cls-1" d="M38.57,64.29v25.71C17.27,90,0,72.73,0,51.43H25.71c0,7.09,5.77,12.86,12.86,12.86Z"/>
        <path class="cls-1" d="M51.43,25.71v21.43c0,.55-.1,1.07-.29,1.56h0c-.62,1.6-2.18,2.73-3.99,2.73H25.71V30c0-2.37-1.92-4.29-4.29-4.29H0V4.29C0,1.92,1.92,0,4.29,0H25.71V21.43c0,2.37,1.92,4.29,4.29,4.29h21.43Z"/>
      </g>
    </g>
  </g>
</svg>